<svg id="Layer_1" enable-background="new 0 0 511.799 511.799" height="512" viewBox="0 0 511.799 511.799" width="512" xmlns="http://www.w3.org/2000/svg"><g><path d="m271.966 288.999h-128.533c-8.284 0-15 6.716-15 15s6.716 15 15 15h128.533c19.84-.719 19.903-29.255 0-30z"/><path d="m368.366 288.999h-32.134c-19.867.731-19.878 29.265 0 30h32.134c19.867-.731 19.879-29.265 0-30z"/><path d="m271.966 353.266h-128.533c-8.284 0-15 6.716-15 15s6.716 15 15 15h128.533c19.84-.719 19.903-29.256 0-30z"/><path d="m368.366 353.266h-32.134c-19.867.731-19.878 29.265 0 30h32.134c19.867-.732 19.879-29.265 0-30z"/><path d="m271.966 417.532h-128.533c-8.284 0-15 6.716-15 15s6.716 15 15 15h128.533c19.84-.718 19.903-29.255 0-30z"/><path d="m368.366 417.532h-32.134c-19.867.731-19.878 29.265 0 30h32.134c19.867-.731 19.879-29.264 0-30z"/><path d="m335.166 239.732c.033-8.706-7.427-15.529-16.066-15 .523-30.451-20.511-55.724-48.2-62.449 1.716-23.767-31.72-23.754-30-.002-27.771 6.743-48.721 32.113-48.2 62.451-20.572-.467-21.63 29.098-1.066 30h128.533c8.283 0 14.999-6.716 14.999-15zm-46.066-15h-66.4c.541-45.369 65.823-45.447 66.4 0z"/><path d="m400.499 64.065h-51.697c-6.632-20.221-26.714-33.442-48.215-32.133-14.48-42.589-74.912-42.563-89.376 0-21.502-1.308-41.583 11.913-48.214 32.133h-51.697c-25.439 0-47.134 20.5-47.134 47.133v353.467c0 26.575 21.648 47.133 47.134 47.133h289.199c25.484 0 47.134-20.556 47.134-47.133v-353.466c0-26.633-21.693-47.134-47.134-47.134zm-192.8-2.133h16.066c8.284 0 15-6.732 15-15.016 0-9.438 7.687-17.117 17.134-17.117s17.134 7.686 17.134 17.133c0 8.284 6.716 15 15 15h16.067c9.334 0 17.133 7.502 17.133 17.133 0 9.488-7.705 17.133-17.133 17.133h-96.4c-9.447 0-17.133-7.686-17.133-17.133-.001-9.617 7.783-17.133 17.132-17.133zm209.934 402.734c0 9.507-7.723 17.133-17.134 17.133h-289.199c-9.396 0-17.134-7.612-17.134-17.133v-353.467c0-9.636 7.804-17.133 17.134-17.133h51.728c6.281 18.655 23.926 32.133 44.671 32.133h96.4c20.425 0 38.372-13.211 44.699-32.133h51.7c9.334 0 17.134 7.501 17.134 17.133v353.467z"/></g></svg>