<?xml version="1.0" encoding="iso-8859-1"?>
<!-- Generator: Adobe Illustrator 19.0.0, SVG Export Plug-In . SVG Version: 6.00 Build 0)  -->
<svg version="1.1" id="Capa_1" xmlns="http://www.w3.org/2000/svg" xmlns:xlink="http://www.w3.org/1999/xlink" x="0px" y="0px"
	 viewBox="0 0 512 512" style="enable-background:new 0 0 512 512;" xml:space="preserve">
<g>
	<g>
		<path d="M438.154,44.308H73.846C33.127,44.308,0,77.435,0,118.154v275.692c0,40.719,33.127,73.846,73.846,73.846h364.308
			c40.719,0,73.846-33.127,73.846-73.846V118.154C512,77.435,478.873,44.308,438.154,44.308z M482.462,300.308H374.154
			c-24.431,0-44.308-19.876-44.308-44.308s19.876-44.308,44.308-44.308h108.308V300.308z M482.462,182.154H374.154
			c-40.719,0-73.846,33.127-73.846,73.846s33.127,73.846,73.846,73.846h108.308v64c0,24.431-19.876,44.308-44.308,44.308H73.846
			c-24.431,0-44.308-19.876-44.308-44.308V118.154c0-24.431,19.876-44.308,44.308-44.308h364.308
			c24.431,0,44.308,19.876,44.308,44.308V182.154z"/>
	</g>
</g>
<g>
	<g>
		<path d="M393.846,241.231h-19.692c-8.157,0-14.769,6.613-14.769,14.769c0,8.157,6.613,14.769,14.769,14.769h19.692
			c8.157,0,14.769-6.613,14.769-14.769C408.615,247.843,402.003,241.231,393.846,241.231z"/>
	</g>
</g>
<g>
</g>
<g>
</g>
<g>
</g>
<g>
</g>
<g>
</g>
<g>
</g>
<g>
</g>
<g>
</g>
<g>
</g>
<g>
</g>
<g>
</g>
<g>
</g>
<g>
</g>
<g>
</g>
<g>
</g>
</svg>
